# xmcd CD database file
#
# Track frame offsets:
#	150
#	29653
#	60415
#	82486
#	95658
#	116911
#	130673
#	162584
#
# Disc length: 2524 seconds
#
# Revision: 0
# Processed by: cddbd v1.5.2PL0 Copyright (c) Steve Scherf et al.
# Submitted via: CDex 1.79
#
DISCID=7309da08
DTITLE=Giovanni Guidi - Avec Le Temps
DYEAR=2019
DGENRE=Jazz
TTITLE0=Avec Le Temps
TTITLE1=15th Of August
TTITLE2=Postludium And A Kiss
TTITLE3=No Taxi
TTITLE4=Caino
TTITLE5=Johnny The Liar
TTITLE6=Ti Stimo
TTITLE7=Tomasz
EXTD=YEAR: 2019
EXTT0=
EXTT1=
EXTT2=
EXTT3=
EXTT4=
EXTT5=
EXTT6=
EXTT7=
PLAYORDER=
